<svg width="31" height="31" viewBox="0 0 31 31" fill="none" xmlns="http://www.w3.org/2000/svg">
<path fill-rule="evenodd" clip-rule="evenodd" d="M15.6172 5.5C10.0972 5.5 5.61719 9.98 5.61719 15.5C5.61719 21.02 10.0972 25.5 15.6172 25.5C21.1372 25.5 25.6172 21.02 25.6172 15.5C25.6172 9.98 21.1372 5.5 15.6172 5.5ZM19.6172 16.5H16.6172V19.5C16.6172 20.05 16.1672 20.5 15.6172 20.5C15.0672 20.5 14.6172 20.05 14.6172 19.5V16.5H11.6172C11.0672 16.5 10.6172 16.05 10.6172 15.5C10.6172 14.95 11.0672 14.5 11.6172 14.5H14.6172V11.5C14.6172 10.95 15.0672 10.5 15.6172 10.5C16.1672 10.5 16.6172 10.95 16.6172 11.5V14.5H19.6172C20.1672 14.5 20.6172 14.95 20.6172 15.5C20.6172 16.05 20.1672 16.5 19.6172 16.5Z" fill="#00CE46"/>
</svg>
