<svg width="25" height="25" viewBox="0 0 25 25" fill="none" xmlns="http://www.w3.org/2000/svg">
<path d="M12.6255 14.8736C13.0481 14.8736 13.3962 14.5253 13.3962 14.1107V5.76757L13.3382 4.54016L13.8437 5.14557L15.0039 6.38127C15.1365 6.53055 15.3271 6.60519 15.5177 6.60519C15.899 6.60519 16.2139 6.33151 16.2139 5.94173C16.2139 5.7344 16.131 5.58512 15.9901 5.44413L13.2139 2.76539C13.015 2.56635 12.8244 2.5 12.6255 2.5C12.4183 2.5 12.236 2.56635 12.0371 2.76539L9.25255 5.44413C9.11166 5.58512 9.02879 5.7344 9.02879 5.94173C9.02879 6.33151 9.33542 6.60519 9.71664 6.60519C9.90724 6.60519 10.1061 6.53055 10.2387 6.38127L11.399 5.14557L11.9128 4.53186L11.8465 5.76757V14.1107C11.8465 14.5253 12.1945 14.8736 12.6255 14.8736ZM7.84371 21.5H17.3907C19.189 21.5 20.1172 20.5711 20.1172 18.7964V10.644C20.1172 8.86927 19.189 7.94042 17.3907 7.94042H15.1531V9.59079H17.2829C18.0371 9.59079 18.468 9.98887 18.468 10.785V18.6471C18.468 19.4433 18.0371 19.8413 17.2829 19.8413H7.95144C7.18901 19.8413 6.76636 19.4433 6.76636 18.6471V10.785C6.76636 9.98887 7.18901 9.59079 7.95144 9.59079H10.1061V7.94042H7.84371C6.05365 7.94042 5.11719 8.86098 5.11719 10.644V18.7964C5.11719 20.5711 6.05365 21.5 7.84371 21.5Z" fill="#0047FF"/>
</svg>
