<svg width="31" height="31" viewBox="0 0 31 31" fill="none" xmlns="http://www.w3.org/2000/svg">
<path fill-rule="evenodd" clip-rule="evenodd" d="M15.6172 5.5C10.0972 5.5 5.61719 9.98 5.61719 15.5C5.61719 21.02 10.0972 25.5 15.6172 25.5C21.1372 25.5 25.6172 21.02 25.6172 15.5C25.6172 9.98 21.1372 5.5 15.6172 5.5ZM15.6172 8.5C17.2772 8.5 18.6172 9.84 18.6172 11.5C18.6172 13.16 17.2772 14.5 15.6172 14.5C13.9572 14.5 12.6172 13.16 12.6172 11.5C12.6172 9.84 13.9572 8.5 15.6172 8.5ZM15.6172 22.7C13.1172 22.7 10.9072 21.42 9.61719 19.48C9.64719 17.49 13.6172 16.4 15.6172 16.4C17.6072 16.4 21.5872 17.49 21.6172 19.48C20.3272 21.42 18.1172 22.7 15.6172 22.7Z" fill="#C3CAD9"/>
</svg>
